<svg width="512" height="512" viewBox="0 0 512 512" xmlns="http://www.w3.org/2000/svg" role="img" aria-label="鳴門避難マップ">
  <!-- 渦潮 (Naruto whirlpool waves) at the base -->
  <g fill="none" stroke-linecap="round" stroke-linejoin="round">
    <path d="M 56 432 Q 256 396 456 432" stroke="#9ECAD9" stroke-width="14"/>
    <path d="M 196 460 C 196 422 280 410 312 438 C 336 460 314 490 278 482 C 252 478 256 452 280 444" stroke="#5A95AB" stroke-width="16"/>
    <path d="M 88 458 Q 130 440 172 462" stroke="#7BAFC4" stroke-width="12"/>
    <path d="M 348 462 Q 388 444 424 460" stroke="#7BAFC4" stroke-width="12"/>
  </g>

  <!-- Brown rooftop peeking from behind the pin -->
  <path d="M 100 400 L 256 296 L 412 400 Z" fill="#8B6F5C"/>

  <!-- Orange teardrop pin -->
  <path d="M 256 348 C 256 348 372 244 372 168 C 372 104 320 52 256 52 C 192 52 140 104 140 168 C 140 244 256 348 256 348 Z" fill="#E97451"/>

  <!-- White house silhouette inside the pin -->
  <g fill="#FFFFFF">
    <path d="M 198 178 L 256 130 L 314 178 Z"/>
    <rect x="210" y="178" width="92" height="62"/>
  </g>

  <!-- Door cutout in pin color -->
  <rect x="244" y="208" width="24" height="32" rx="2" fill="#E97451"/>
</svg>
